PathFileType        4      (X/Y/Z)      Static.trc         
DataRate	CameraRate	NumFrames	NumMarkers	Units	OrigDataRate	OrigDataStartFrame	OrigNumFrames
100.0	100.0	12	33	mm	100.0	20	156
Frame#	Time	T2			T10			MANU			LASI			RASI			SACR			LTHI			LKAX			LKD1			LKD2			LKNE			LTIB			LANK			LMED			LHEE			LTOE			RTHI			RKAX			RKD1			RKD2			RKNE			RTIB			RANK			RMED			RHEE			RTOE			RHJC			LHJC			RKJC			LKJC			MASI			RAJC			LAJC			
		X1	Y1	Z1	X2	Y2	Z2	X3	Y3	Z3	X4	Y4	Z4	X5	Y5	Z5	X6	Y6	Z6	X7	Y7	Z7	X8	Y8	Z8	X9	Y9	Z9	X10	Y10	Z10	X11	Y11	Z11	X12	Y12	Z12	X13	Y13	Z13	X14	Y14	Z14	X15	Y15	Z15	X16	Y16	Z16	X17	Y17	Z17	X18	Y18	Z18	X19	Y19	Z19	X20	Y20	Z20	X21	Y21	Z21	X22	Y22	Z22	X23	Y23	Z23	X24	Y24	Z24	X25	Y25	Z25	X26	Y26	Z26	X27	Y27	Z27	X28	Y28	Z28	X29	Y29	Z29	X30	Y30	Z30	X31	Y31	Z31	X32	Y32	Z32	X33	Y33	Z33	
20	0.19	130.05964	1122.8296	-58.68355	105.82616	924.84003	-75.86197	243.32007	1050.30694	-45.99939	300.1074	736.81804	-149.04625	269.89286	740.3597	69.22167	163.75453	771.57275	-60.64673	305.63959	419.10461	-213.7062	314.25114	355.97748	-277.20518	406.60667	349.75204	-182.85875	309.65808	259.86824	-186.0093	313.22541	353.41386	-183.63514	202.97956	136.10821	-238.3376	156.55214	61.86642	-207.3627	157.41762	49.05178	-133.46881	95.12925	39.42724	-185.11482	268.66538	29.54812	-184.18947	299.12523	432.73003	113.07959	319.70841	361.90842	175.98367	408.67581	358.35395	68.08978	312.1821	266.41352	78.12102	312.51546	361.72513	78.00035	225.25518	144.63267	130.07612	174.11022	53.85693	102.72284	177.7995	57.0358	24.17209	118.71217	37.15946	79.91567	288.98789	29.65425	54.14791	215.37918	676.01172	32.26375	237.32249	673.43959	-126.2533	309.14767	361.63931	32.12388	312.72137	352.1541	-137.65516	285.00013	738.58887	-39.91229	172.35865	47.17916	64.2932	152.78	47.44833	-171.30029	
21	0.2	130.12125	1122.81316	-58.69529	105.88764	924.79554	-75.90442	243.36516	1050.30273	-46.00336	300.177	736.81242	-149.0623	269.98218	740.37882	69.21898	163.8345	771.56516	-60.67598	305.68866	419.08825	-213.716	314.28003	355.94885	-277.21047	406.64888	349.73839	-182.86283	309.68115	259.85137	-186.01303	313.25693	353.39947	-183.64042	202.99493	136.10267	-238.33726	156.5617	61.8633	-207.36814	157.41317	49.05545	-133.46647	95.13992	39.41559	-185.12975	268.67978	29.56471	-184.18552	299.15827	432.71967	113.07147	319.72064	361.88432	175.97467	408.71326	358.34029	68.094	312.18852	266.39615	78.12179	312.53922	361.71232	77.99455	225.26003	144.63292	130.06803	174.11656	53.85841	102.71366	177.80202	57.03521	24.15755	118.69968	37.1655	79.89605	289.00354	29.65966	54.14493	215.47024	676.01809	32.2726	237.39913	673.428	-126.25344	309.17668	361.63179	32.11769	312.75418	352.1467	-137.66023	285.07959	738.59562	-39.92166	172.36242	47.17981	64.28119	152.78173	47.44882	-171.30174	
22	0.21	130.18042	1122.79586	-58.70046	105.92889	924.75895	-75.93222	243.41577	1050.29578	-46.01128	300.25016	736.80159	-149.08126	270.07334	740.39114	69.20851	163.89852	771.56914	-60.69281	305.7345	419.06603	-213.72402	314.31666	355.9238	-277.21232	406.69698	349.72493	-182.87292	309.6979	259.82549	-186.01576	313.29207	353.38531	-183.64354	203.00756	136.09383	-238.33575	156.56799	61.86307	-207.36739	157.41195	49.05896	-133.4669	95.1397	39.40724	-185.13233	268.69249	29.57813	-184.18028	299.19415	432.70564	113.06482	319.74811	361.86658	175.96173	408.757	358.32047	68.0962	312.2009	266.37512	78.11824	312.57328	361.69885	77.98476	225.27369	144.63733	130.05787	174.12414	53.86093	102.70327	177.80242	57.03924	24.14417	118.68979	37.17699	79.87886	289.02148	29.66967	54.14267	215.55323	676.02619	32.27187	237.46898	673.41929	-126.25992	309.21372	361.62031	32.10767	312.78858	352.13787	-137.66322	285.16175	738.59636	-39.93638	172.36551	47.18349	64.26926	152.78341	47.45074	-171.3015	
23	0.22	130.23042	1122.77838	-58.69618	105.95384	924.734	-75.9403	243.46969	1050.28678	-46.02143	300.32342	736.78663	-149.10226	270.15773	740.39273	69.18993	163.94272	771.57979	-60.69678	305.77213	419.03946	-213.72952	314.35917	355.90372	-277.21132	406.74611	349.7104	-182.88614	309.70421	259.78989	-186.01665	313.3264	353.37132	-183.64388	203.01498	136.08233	-238.33398	156.56903	61.86632	-207.36062	157.41522	49.06042	-133.47046	95.12468	39.40324	-185.12162	268.69757	29.58441	-184.17402	299.23063	432.68883	113.06002	319.78803	361.85517	175.94672	408.80262	358.293	68.09765	312.22047	266.35284	78.11146	312.61606	361.68401	77.97299	225.29307	144.64185	130.04665	174.12958	53.86273	102.69367	177.80027	57.04815	24.13624	118.68265	37.19324	79.86883	289.03449	29.6815	54.14131	215.62278	676.03136	32.2589	237.53044	673.41246	-126.27457	309.25772	361.60385	32.09582	312.81889	352.12687	-137.66352	285.24057	738.58968	-39.95616	172.36602	47.18943	64.26057	152.7848	47.45346	-171.29985	
24	0.23	130.27057	1122.76189	-58.68389	105.97319	924.71668	-75.93101	243.52192	1050.27596	-46.03064	300.39273	736.76952	-149.12255	270.22788	740.38328	69.16608	163.97528	771.58736	-60.69208	305.79931	419.01069	-213.73296	314.40265	355.88688	-277.20937	406.79011	349.69217	-182.89946	309.7022	259.74926	-186.01661	313.35676	353.35625	-183.64305	203.01784	136.06974	-238.33317	156.5667	61.87172	-207.35125	157.41858	49.05887	-133.47671	95.09801	39.40327	-185.10289	268.69254	29.58285	-184.16739	299.26606	432.67048	113.05702	319.83371	361.84673	175.93186	408.84633	358.25898	68.09931	312.24737	266.33332	78.1033	312.66423	361.66762	77.96182	225.31145	144.64172	130.0357	174.12963	53.86272	102.68667	177.79722	57.05907	24.13482	118.67704	37.21231	79.86832	289.03789	29.69179	54.14067	215.67887	676.02936	32.23593	237.58596	673.40489	-126.29518	309.30691	361.58375	32.08458	312.84279	352.11264	-137.66274	285.3103	738.5764	-39.97824	172.36315	47.19558	64.25655	152.78469	47.45582	-171.29826	
25	0.24	130.30536	1122.74679	-58.66937	105.99944	924.69793	-75.91286	243.56799	1050.26233	-46.03685	300.45631	736.75129	-149.13985	270.28398	740.36621	69.14139	164.01125	771.5837	-60.6853	305.81912	418.9819	-213.73581	314.44134	355.86884	-277.20867	406.8252	349.66734	-182.91157	309.7005	259.71085	-186.01761	313.3835	353.33765	-183.64386	203.01981	136.05747	-238.33381	156.56581	61.87672	-207.34379	157.41629	49.0537	-133.48458	95.06809	39.40495	-185.08328	268.68017	29.5759	-184.16203	299.30064	432.65164	113.0552	319.87804	361.83612	175.91831	408.8868	358.22091	68.10168	312.28085	266.31955	78.09435	312.71469	361.64987	77.95264	225.32291	144.63337	130.02606	174.12342	53.86033	102.68289	177.79554	57.06738	24.13718	118.67372	37.23008	79.87631	289.03197	29.69686	54.14058	215.72781	676.01892	32.20931	237.64038	673.3936	-126.31685	309.36009	361.56264	32.0752	312.86365	352.09375	-137.66362	285.37015	738.55875	-39.99923	172.35766	47.19918	64.25607	152.78249	47.45624	-171.29845	
26	0.25	130.34031	1122.73149	-58.65972	106.0427	924.66928	-75.89591	243.60689	1050.24472	-46.04086	300.51643	736.73264	-149.15453	270.33587	740.34804	69.11937	164.06392	771.56613	-60.68273	305.83806	418.95461	-213.73989	314.47164	355.84506	-277.21047	406.85239	349.63481	-182.9237	309.70911	259.68035	-186.02167	313.41013	353.31352	-183.64864	203.02556	136.04654	-238.33591	156.5709	61.87901	-207.34128	157.40677	49.04519	-133.49306	95.0445	39.40486	-185.06842	268.66594	29.56742	-184.16113	299.3363	432.63301	113.05299	319.91734	361.82041	175.90588	408.92542	358.18198	68.10447	312.31919	266.31165	78.08374	312.76565	361.63157	77.94488	225.3259	144.61612	130.01761	174.11353	53.85503	102.68099	177.7961	57.06937	24.13926	118.6753	37.24122	79.88808	289.02045	29.69341	54.14034	215.78142	676.00259	32.18625	237.70003	673.37691	-126.33499	309.41632	361.54313	32.06706	312.88846	352.06942	-137.66843	285.42615	738.54034	-40.01758	172.35135	47.19802	64.25639	152.77955	47.4537	-171.30138	
27	0.26	130.37798	1122.71417	-58.65882	106.1069	924.62773	-75.88692	243.64159	1050.22462	-46.04669	300.57873	736.71635	-149.17018	270.39742	740.33605	69.10026	164.13896	771.53768	-60.68773	305.86171	418.92993	-213.74655	314.49433	355.81501	-277.21524	406.87712	349.5975	-182.93886	309.73393	259.66106	-186.03073	313.44144	353.28531	-183.65877	203.03808	136.03811	-238.33995	156.58332	61.87758	-207.3442	157.39332	49.03614	-133.50218	95.03335	39.4016	-185.06072	268.65452	29.56098	-184.168	299.37559	432.61555	113.04779	319.95292	361.80144	175.89327	408.96469	358.14621	68.10572	312.35888	266.30726	78.07046	312.81588	361.61488	77.93644	225.32352	144.59338	130.00867	174.10512	53.84735	102.67777	177.79795	57.06402	24.13896	118.68383	37.24375	79.89635	289.00734	29.68059	54.13775	215.85237	675.98515	32.17003	237.77156	673.35634	-126.3489	309.47324	361.5275	32.05813	312.92398	352.04203	-137.67848	285.48807	738.5262	-40.03496	172.34645	47.19175	64.25482	152.77806	47.44906	-171.3073	
28	0.27	130.41632	1122.69437	-58.66551	106.18639	924.57717	-75.88699	243.67602	1050.20646	-46.05873	300.64791	736.7069	-149.19081	270.47712	740.3347	69.08221	164.23271	771.506	-60.6992	305.89185	418.90916	-213.75567	314.51373	355.7837	-277.22295	406.90569	349.56181	-182.95887	309.77377	259.65402	-186.04525	313.48033	353.25849	-183.67386	203.05655	136.03317	-238.34599	156.60038	61.87323	-207.35072	157.3811	49.03186	-133.51234	95.03417	39.39764	-185.05859	268.64787	29.55847	-184.18269	299.41998	432.60092	113.03772	319.98784	361.78397	175.87948	409.00529	358.11712	68.10322	312.3952	266.30358	78.05514	312.86341	361.60214	77.9258	225.32015	144.57117	129.9978	174.10322	53.84031	102.67047	177.7996	57.0535	24.13678	118.69846	37.24176	79.89537	288.99509	29.66218	54.13004	215.94584	675.97147	32.15915	237.85736	673.33678	-126.36157	309.52653	361.51697	32.04707	312.97241	352.01732	-137.69341	285.56251	738.5208	-40.0543	172.34488	47.18301	64.25025	152.77924	47.44529	-171.31546	
29	0.28	130.44991	1122.67223	-58.67541	106.26616	924.52735	-75.89266	243.71082	1050.19355	-46.07687	300.72308	736.70633	-149.21606	270.57188	740.34349	69.06493	164.33318	771.4816	-60.71265	305.92655	418.89364	-213.76501	314.53334	355.7578	-277.23222	406.94105	349.53366	-182.98075	309.81981	259.65595	-186.06199	313.52425	353.23884	-183.68997	203.07659	136.03138	-238.35197	156.61684	61.86831	-207.35772	157.37294	49.03625	-133.52217	95.03999	39.39694	-185.05709	268.6448	29.55911	-184.19997	299.46881	432.59065	113.02416	320.02294	361.77174	175.86601	409.04481	358.09487	68.09801	312.42421	266.29841	78.04134	312.90563	361.59358	77.91444	225.31801	144.55452	129.98612	174.10904	53.83853	102.65964	177.80039	57.0424	24.13428	118.71377	37.24193	79.88553	288.98491	29.64583	54.11699	216.05325	675.96536	32.15121	237.9505	673.32388	-126.37496	309.57199	361.51013	32.03547	313.02823	352.00064	-137.70931	285.64748	738.52491	-40.07556	172.34705	47.17658	64.24372	152.78199	47.44548	-171.32367	
30	0.29	130.47319	1122.64836	-58.68364	106.32889	924.48937	-75.89839	243.74316	1050.18501	-46.09588	300.79845	736.7118	-149.24064	270.66965	740.35793	69.0512	164.42448	771.474	-60.72288	305.96265	418.88431	-213.77086	314.55273	355.74076	-277.23996	406.98213	349.51534	-182.99719	309.86011	259.65985	-186.07459	313.56629	353.22858	-183.70018	203.09349	136.03189	-238.35421	156.62752	61.86559	-207.3622	157.36766	49.04797	-133.52841	95.04176	39.40163	-185.05052	268.64282	29.56032	-184.21165	299.52031	432.58508	113.01167	320.0565	361.76507	175.85682	409.08018	358.07575	68.09458	312.44392	266.28989	78.03422	312.94076	361.58692	77.90636	225.31746	144.54538	129.977	174.1186	53.84474	102.64923	177.80077	57.03534	24.1328	118.7215	37.24835	79.87302	288.97758	29.63887	54.10245	216.15618	675.96868	32.14602	238.0371	673.3207	-126.3875	309.60782	361.50347	32.02734	313.08139	351.99368	-137.71931	285.73405	738.53487	-40.09472	172.35118	47.17633	64.23783	152.78333	47.45028	-171.32891	
31	0.3	130.48395	1122.62414	-58.68722	106.3644	924.46942	-75.89972	243.77131	1050.17809	-46.11114	300.8694	736.71856	-149.25971	270.75924	740.37274	69.0439	164.4939	771.48648	-60.72673	305.99871	418.88173	-213.7708	314.57041	355.73259	-277.24359	407.02713	349.50621	-183.00249	309.88845	259.66049	-186.07805	313.60178	353.22698	-183.69945	203.10542	136.03495	-238.35083	156.62986	61.86695	-207.36238	157.36298	49.06179	-133.5291	95.03432	39.41146	-185.03593	268.64104	29.56019	-184.21248	299.57377	432.58335	113.00442	320.08706	361.76131	175.85448	409.11153	358.05588	68.09691	312.45522	266.27705	78.03638	312.9698	361.57963	77.9043	225.31998	144.54329	129.97325	174.12594	53.85773	102.6432	177.80177	57.03458	24.13241	118.71663	37.26113	79.86387	288.97351	29.64394	54.09119	216.23976	675.98004	32.14411	238.10705	673.32622	-126.39736	309.63613	361.49453	32.02533	313.12565	351.99537	-137.7184	285.81432	738.54565	-40.10791	172.35471	47.18285	64.23459	152.78093	47.45804	-171.32938	
